<svg viewBox="0 0 28 28">
  <title>cart</title>
  <style>
    :host {
      --stroke-width: 0px;
    }

    :host {
      font-size: 24px;
      stroke: inherit;
    }

    :host path {
      stroke: currentColor;
      stroke-width: var(--stroke-width);
      fill: currentColor;
      stroke-linecap: round;
      stroke-linejoin: round;
    }

    :host(.ion-color) path {
      --stroke: var(--ion-color-base) !important;
    }

    :host([tp-size='sm']) {      font-size: 16px;
    }

    :host([tp-size='md']) {      font-size: 32px;
    }

    :host([tp-size='lg']) {      font-size: 48px;
    }
  </style>
<path d="M8.09395 20.7439C6.87065 20.6814 6.89369 18.9608 8.09389 18.901C11.4937 18.9128 20.461 18.9042 23.9689 18.9067C24.9284 18.9067 25.7492 18.2537 25.965 17.3189L27.9569 8.69337C28.071 8.1995 27.9559 7.68834 27.6412 7.29104C27.3264 6.89375 26.8553 6.66268 26.3484 6.66268C24.9372 6.66268 12.9584 6.60845 6.82288 6.584L5.8503 2.97527C5.61682 2.11289 4.82983 1.51062 3.93642 1.51062H0.820749C0.367476 1.51062 0 1.8781 0 2.33137C0 2.78464 0.367476 3.15212 0.820749 3.15212H3.93642C4.01123 3.15219 4.08396 3.17681 4.14343 3.2222C4.2029 3.26758 4.24584 3.33123 4.26565 3.40338L8.00088 17.2618C7.34411 17.2856 6.73238 17.5528 6.2685 18.0234C5.78108 18.5181 5.51932 19.1728 5.53141 19.8671C5.55559 21.2556 6.70513 22.3853 8.09395 22.3853H9.29071C9.10744 22.7699 9.01255 23.1905 9.01297 23.6165C9.01297 25.2005 10.3017 26.4892 11.8857 26.4892C13.4697 26.4892 14.7584 25.2005 14.7584 23.6165C14.7588 23.1905 14.6639 22.7698 14.4806 22.3853H19.6632C19.48 22.7697 19.3852 23.1902 19.3856 23.6161C19.3856 25.2001 20.6743 26.4888 22.2583 26.4888C23.8424 26.4888 25.1311 25.2001 25.1311 23.6161C25.1314 23.1739 25.0291 22.7378 24.8321 22.342C25.1569 22.2326 25.3911 21.9262 25.3911 21.5646C25.3911 21.1114 25.0236 20.7439 24.5704 20.7439H8.09395ZM13.1169 23.6166C13.1169 24.2955 12.5646 24.8478 11.8856 24.8478C11.2067 24.8478 10.6544 24.2955 10.6544 23.6166C10.6544 22.938 11.2062 22.3859 11.8846 22.3854H11.8867C12.5651 22.3859 13.1169 22.938 13.1169 23.6166ZM22.2584 24.8473C21.5795 24.8473 21.0271 24.295 21.0271 23.6161C21.0271 22.9439 21.5687 22.3962 22.2384 22.3854H22.2784C22.9481 22.3962 23.4897 22.9439 23.4897 23.6161C23.4897 24.295 22.9373 24.8473 22.2584 24.8473ZM26.3545 8.31019C26.3593 8.31632 26.3586 8.31922 26.3576 8.32393L25.5183 11.9585H22.6762L23.1602 8.29121L26.3419 8.30401C26.3467 8.30412 26.3496 8.30412 26.3545 8.31019ZM17.8928 17.2651V13.6H20.8038L20.3201 17.2651H17.8928ZM13.8229 17.2651L13.3352 13.6H16.2513V17.2651H13.8229ZM10.0445 17.2651H10.042C9.84192 17.2651 9.66568 17.1301 9.61365 16.9379L8.714 13.6H11.6793L12.1669 17.2651H10.0445ZM13.1168 11.9585L12.6232 8.2488L16.2513 8.26341V11.9585H13.1168ZM17.8928 11.9585V8.27003L21.5053 8.28459L21.0205 11.9585H17.8928ZM10.9664 8.24207L11.4608 11.9585H8.27156L7.26587 8.22713L10.9664 8.24207ZM23.9689 17.2651H21.9758L22.4595 13.6H25.1391L24.3656 16.9496C24.3452 17.0394 24.2948 17.1196 24.2227 17.177C24.1506 17.2344 24.0611 17.2655 23.9689 17.2651Z"/>
</svg>
