<svg viewBox="0 0 28 28">
<title>divide-square</title>
  <style>
    :host {
      --stroke-width: 2;
      --fill: none;
      --transition: none;
    }

    :host {
      font-size: 24px;
      stroke: inherit;
    }

    :host path {
      stroke: currentColor;
      stroke-width: var(--stroke-width);
      fill: var(--fill);
      transition: var(--transition);
      stroke-linecap: round;
      stroke-linejoin: round;
    }

    :host(.ion-color) path {
      --stroke: var(--ion-color-base) !important;
    }

    :host([tp-size='sm']) {
      font-size: 16px;
    }

    :host([tp-size='md']) {
      font-size: 32px;
    }

    :host([tp-size='lg']) {
      font-size: 48px;
    }
  </style>
  <path d="M9.5 14H18.5M6.125 3.875H21.875C23.1176 3.875 24.125 4.88236 24.125 6.125V21.875C24.125 23.1176 23.1176 24.125 21.875 24.125H6.125C4.88236 24.125 3.875 23.1176 3.875 21.875V6.125C3.875 4.88236 4.88236 3.875 6.125 3.875Z" />
  <path d="M15.125 18.5C15.125 19.1213 14.6213 19.625 14 19.625C13.3787 19.625 12.875 19.1213 12.875 18.5C12.875 17.8787 13.3787 17.375 14 17.375C14.6213 17.375 15.125 17.8787 15.125 18.5Z" />
  <path d="M15.125 9.5C15.125 10.1213 14.6213 10.625 14 10.625C13.3787 10.625 12.875 10.1213 12.875 9.5C12.875 8.87868 13.3787 8.375 14 8.375C14.6213 8.375 15.125 8.87868 15.125 9.5Z" />
  <path d="M15.125 18.5C15.125 19.1213 14.6213 19.625 14 19.625C13.3787 19.625 12.875 19.1213 12.875 18.5C12.875 17.8787 13.3787 17.375 14 17.375C14.6213 17.375 15.125 17.8787 15.125 18.5Z" />
  <path d="M15.125 9.5C15.125 10.1213 14.6213 10.625 14 10.625C13.3787 10.625 12.875 10.1213 12.875 9.5C12.875 8.87868 13.3787 8.375 14 8.375C14.6213 8.375 15.125 8.87868 15.125 9.5Z" />
</svg>
