<svg viewBox="0 0 27 25">
  <title>heart</title>
  <style>
    :host {
      --stroke-width: 0px;
    }

    :host {
      font-size: 24px;
      stroke: inherit;
    }

    :host path {
      stroke: currentColor;
      stroke-width: var(--stroke-width);
      fill: currentColor;
      stroke-linecap: round;
      stroke-linejoin: round;
    }

    :host(.ion-color) path {
      --stroke: var(--ion-color-base) !important;
    }

    :host([tp-size='sm']) {      font-size: 16px;
    }

    :host([tp-size='md']) {      font-size: 32px;
    }

    :host([tp-size='lg']) {      font-size: 48px;
    }
  </style>
  <path d="M25.0865 2.79696C23.8107 1.5512 22.0481 0.928589 19.7978 0.928589C19.1751 0.928589 18.5396 1.03656 17.8918 1.2524C17.2438 1.4684 16.641 1.75982 16.084 2.12643C15.5263 2.49294 15.047 2.83712 14.645 3.15846C14.2447 3.47863 13.8625 3.82066 13.5 4.18299C13.1374 3.82069 12.7552 3.47866 12.3549 3.15846C11.953 2.83712 11.4735 2.49315 10.9159 2.12643C10.3584 1.75966 9.75571 1.46846 9.10787 1.2524C8.46008 1.03662 7.82464 0.928589 7.20192 0.928589C4.95184 0.928589 3.18912 1.55136 1.91349 2.79696C0.637866 4.04245 0 5.77003 0 7.97984C0 8.65286 0.118211 9.34619 0.354159 10.059C0.590107 10.7722 0.858985 11.3799 1.16027 11.8821C1.46149 12.3842 1.80309 12.8738 2.1848 13.351C2.56651 13.8281 2.84546 14.1569 3.02104 14.3377C3.19677 14.5185 3.33493 14.6492 3.43536 14.7297L12.837 23.8C13.0179 23.9808 13.2388 24.0715 13.4999 24.0715C13.7611 24.0715 13.9822 23.9808 14.1629 23.8L23.5497 14.7595C25.8499 12.4596 26.9999 10.1996 26.9999 7.97963C27 5.76966 26.3622 4.04224 25.0865 2.79696ZM22.2388 13.3434L13.5 21.7658L4.74629 13.3282C2.86789 11.4503 1.92885 9.66715 1.92885 7.97963C1.92885 7.16614 2.03682 6.44784 2.25267 5.82523C2.46866 5.20251 2.74488 4.70766 3.08136 4.34104C3.41789 3.97433 3.82715 3.67574 4.30928 3.44454C4.79168 3.21355 5.26373 3.05782 5.7257 2.9775C6.18768 2.89728 6.67979 2.85712 7.20219 2.85712C7.72443 2.85712 8.28704 2.98504 8.8897 3.24126C9.49227 3.49736 10.0472 3.8188 10.5544 4.20547C11.0617 4.5924 11.4962 4.95395 11.8579 5.29032C12.2195 5.62701 12.5207 5.93568 12.7618 6.21696C12.9425 6.43803 13.1888 6.54854 13.5001 6.54854C13.8114 6.54854 14.0574 6.43803 14.2383 6.21696C14.4794 5.93568 14.7809 5.62686 15.1424 5.29032C15.504 4.95395 15.9385 4.59256 16.4456 4.20547C16.9529 3.8188 17.5078 3.49736 18.1107 3.24126C18.7132 2.9851 19.2759 2.85712 19.7982 2.85712C20.3205 2.85712 20.8125 2.89728 21.2747 2.9775C21.7368 3.05777 22.2089 3.21355 22.6911 3.44454C23.1733 3.67568 23.5825 3.97448 23.919 4.34104C24.2554 4.70766 24.5318 5.20251 24.7478 5.82523C24.9634 6.44784 25.0714 7.16614 25.0714 7.97963C25.0713 9.66715 24.1273 11.4553 22.2388 13.3434Z" />
</svg>
