<svg viewBox="0 0 27 25">
  <title>heart</title>
  <style>
    :host {
      --stroke-width: 0px;
    }

    :host {
      font-size: 24px;
      stroke: inherit;
    }

    :host path {
      stroke: currentColor;
      stroke-width: var(--stroke-width);
      fill: currentColor;
      stroke-linecap: round;
      stroke-linejoin: round;
    }

    :host(.ion-color) path {
      --stroke: var(--ion-color-base) !important;
    }

    :host([tp-size='sm']) {      font-size: 16px;
    }

    :host([tp-size='md']) {      font-size: 32px;
    }

    :host([tp-size='lg']) {      font-size: 48px;
    }
  </style>
<path d="M24.6172 13.5806L13.814 24.1727C13.7299 24.2551 13.6167 24.3013 13.4989 24.3013C13.3811 24.3013 13.2679 24.2551 13.1838 24.1727L2.38063 13.5806C1.26938 12.4893 0.503005 11.0958 0.176607 9.57285C-0.149792 8.04994 -0.0218502 6.4647 0.544557 5.01384C1.04456 3.72012 1.87766 2.58155 2.95944 1.71351C4.04121 0.845474 5.33322 0.278812 6.70454 0.0709454C9.2658 -0.274292 11.6577 0.758584 13.4989 2.98464C15.342 0.755073 17.7331 -0.277533 20.2843 0.0640128C21.7394 0.291149 23.1026 0.918484 24.2217 1.8759C25.3407 2.83331 26.1714 4.08307 26.621 5.48549C27.0706 6.88791 27.1212 8.38773 26.7674 9.8173C26.4135 11.2469 25.669 12.5499 24.6172 13.5806Z"/>
</svg>
