<svg viewBox="0 0 24 24">
  <title>ia</title>
  <style>
    :host {
      --stroke-width: 0.8;
    }

    :host {
      font-size: 24px;
      stroke: inherit;
    }

    :host path {
      stroke: currentColor;
      stroke-width: var(--stroke-width);
      fill: var(--ion-color-base) !important;
      stroke-linecap: round;
      stroke-linejoin: round;
    }

    :host(.ion-color) path {
      --stroke: var(--ion-color-base) !important;
    }

    :host([tp-size='sm']) {      font-size: 16px;
    }

    :host([tp-size='md']) {      font-size: 32px;
    }

    :host([tp-size='lg']) {      font-size: 48px;
    }
  </style>
  <path fill-rule="evenodd" clip-rule="evenodd" d="M16.9839 19.9137C20.8924 17.5978 22.1291 12.2239 19.6267 7.84718C17.1243 3.47041 11.8971 1.86497 7.9567 4.12508C7.59391 4.3401 7.33804 4.53387 7.15927 4.70666C7.14907 4.71886 7.1402 4.73029 7.13261 4.7409C7.22774 4.83233 7.4371 4.95834 7.81338 5.11559C8.19298 5.27423 8.66843 5.43603 9.22103 5.62229L9.30562 5.65076C10.3791 6.01239 11.6936 6.45518 12.9072 7.09414C14.1525 7.74975 15.3448 8.63835 16.076 9.91726C16.8072 11.1962 16.9731 12.6831 16.9128 14.1C16.8539 15.4807 16.5765 16.8516 16.3498 17.9713L16.332 18.0595C16.2154 18.6358 16.1165 19.1326 16.0627 19.5438C16.0094 19.9515 16.0128 20.1976 16.0437 20.3265C16.0566 20.3252 16.0708 20.3231 16.0864 20.3203C16.324 20.2504 16.6181 20.1235 16.9839 19.9137ZM14.9603 19.9876C14.9648 19.7962 14.9843 19.5984 15.0098 19.4035C15.0694 18.9476 15.1768 18.4117 15.2914 17.8448L15.3037 17.7842C15.5337 16.6474 15.7966 15.3482 15.8517 14.0539C15.9079 12.736 15.7447 11.4828 15.1562 10.4535C14.5677 9.42415 13.5745 8.65494 12.4162 8.04507C11.2785 7.44611 10.0329 7.02641 8.94296 6.65915L8.88482 6.63956C8.34132 6.45641 7.82806 6.28238 7.40725 6.10652C7.2274 6.03137 7.04794 5.94952 6.88162 5.85774C6.90225 5.90163 6.92607 5.94751 6.95334 5.99547C7.09499 6.24452 7.31294 6.52068 7.60429 6.83632C7.89436 7.15058 8.23894 7.48478 8.62446 7.85493L8.74099 7.96676C9.09093 8.30249 9.46833 8.66454 9.84862 9.05231C10.6951 9.91541 11.5762 10.9259 12.2687 12.137C12.9611 13.348 13.3871 14.6238 13.7041 15.7956C13.8465 16.3221 13.9683 16.8332 14.0813 17.307L14.1189 17.4649C14.2436 17.9871 14.3579 18.4555 14.4824 18.8663C14.6074 19.2789 14.7353 19.6076 14.8781 19.856C14.9056 19.9038 14.933 19.9476 14.9603 19.9876ZM16.8464 21.1913C12.4724 23.2362 7.07345 21.282 4.45075 16.6948C1.82805 12.1077 2.85159 6.40917 6.79225 3.60647C6.96452 3.47685 7.16174 3.34999 7.37823 3.22377C7.39092 3.21637 7.40362 3.20902 7.41631 3.20169C7.42555 3.19624 7.43481 3.1908 7.44411 3.18538L7.4539 3.17965L7.46325 3.17421L7.47241 3.16887C11.8399 0.622573 17.5103 2.39064 20.3471 6.97601C20.3897 7.04478 20.4316 7.11417 20.4729 7.18422C20.4976 7.22624 20.5221 7.26849 20.5464 7.31096C20.5896 7.38649 20.6318 7.46228 20.673 7.5384C23.2691 12.3326 21.9642 18.2487 17.5618 20.8154L17.5526 20.8207L17.5433 20.8262C17.5307 20.8335 17.5181 20.8408 17.5054 20.8481C17.4928 20.8555 17.4803 20.8629 17.4676 20.8703C17.2511 20.9965 17.0437 21.1055 16.8464 21.1913ZM13.9595 20.3943C13.9801 20.4301 14.0014 20.4656 14.0233 20.5005C13.5063 20.3611 13.012 20.0779 12.5222 19.6601C11.2039 18.5356 10.0403 16.551 8.70462 14.2148C7.36889 11.8786 6.24867 9.86879 5.94339 8.15366C5.82996 7.51639 5.83427 6.94249 5.97318 6.4207C5.99219 6.45737 6.01197 6.49368 6.03239 6.52958C6.23293 6.88217 6.5136 7.2276 6.82741 7.56757C7.14251 7.90895 7.50966 8.26441 7.89261 8.6321L8.0089 8.74372C8.36009 9.08065 8.7258 9.43153 9.09399 9.80694C9.91146 10.6405 10.7216 11.576 11.3489 12.6732C11.9762 13.7703 12.3734 14.9465 12.6796 16.0782C12.8175 16.588 12.9355 17.083 13.0489 17.5586L13.0865 17.7163C13.2103 18.235 13.3316 18.7338 13.4669 19.1801C13.6015 19.6245 13.7574 20.0426 13.9595 20.3943ZM4.81495 7.68267C4.8304 7.90126 4.85865 8.12165 4.8981 8.34337C5.24329 10.2828 6.48113 12.4708 7.78486 14.751C9.0886 17.0313 10.3462 19.2078 11.8369 20.4794C12.0073 20.6247 12.1822 20.7596 12.3619 20.8824C9.62808 20.6034 6.95865 18.9363 5.3705 16.1586C3.78236 13.3809 3.68734 10.2129 4.81495 7.68267Z" />
</svg>
