<svg viewBox="0 0 29 42">
  <title>pointer-default</title>
    <style>
    :host {
      font-size: 30px;
    }
  </style>
  <path style=" stroke:none;fill-rule:nonzero;fill:#C1CBCD;fill-opacity:1;" d="M 22.386719 4.683594 C 25.203125 6.785156 26.78125 9.394531 27.476562 12.808594 C 27.492188 13.003906 27.507812 13.195312 27.523438 13.398438 C 27.53125 13.507812 27.542969 13.621094 27.550781 13.738281 C 27.835938 20.023438 23.101562 26.492188 19.578125 31.320312 C 19.484375 31.453125 19.386719 31.582031 19.289062 31.71875 C 18.6875 32.550781 18.078125 33.375 17.464844 34.195312 C 17.277344 34.445312 17.09375 34.695312 16.90625 34.945312 C 16.660156 35.277344 16.414062 35.605469 16.164062 35.933594 C 16.023438 36.121094 15.882812 36.304688 15.742188 36.496094 C 15.3125 36.953125 15.007812 37.117188 14.40625 37.292969 C 13.523438 36.683594 12.976562 35.945312 12.363281 35.085938 C 12.257812 34.941406 12.15625 34.796875 12.046875 34.648438 C 11.832031 34.347656 11.613281 34.050781 11.398438 33.75 C 11.105469 33.34375 10.8125 32.941406 10.519531 32.539062 C 7.5 28.414062 4.59375 24.148438 2.769531 19.371094 C 2.652344 19.058594 2.652344 19.058594 2.53125 18.742188 C 1.390625 15.453125 1.421875 12.222656 2.957031 9.050781 C 4.5625 6.027344 7.265625 3.980469 10.527344 2.898438 C 14.617188 1.71875 18.835938 2.355469 22.386719 4.683594 Z M 7.257812 8.554688 C 5.703125 10.382812 4.59375 12.894531 4.746094 15.328125 C 5.128906 18.121094 6.101562 20.585938 8.355469 22.421875 C 10.875 24.265625 13.386719 24.65625 16.441406 24.441406 C 18 24.171875 19.269531 23.589844 20.503906 22.628906 C 20.710938 22.476562 20.710938 22.476562 20.921875 22.320312 C 22.898438 20.753906 24.023438 18.546875 24.382812 16.113281 C 24.582031 13.191406 23.796875 10.660156 21.875 8.410156 C 19.917969 6.464844 17.464844 5.425781 14.683594 5.375 C 11.804688 5.367188 9.222656 6.496094 7.257812 8.554688 Z M 7.257812 8.554688 "></path><path style=" stroke:none;fill-rule:nonzero;fill:#C1CBCD;fill-opacity:1;" d="M 20.296875 8.554688 C 21.875 9.992188 23.042969 11.984375 23.144531 14.128906 C 23.148438 14.386719 23.148438 14.644531 23.148438 14.902344 C 23.144531 15.035156 23.144531 15.171875 23.144531 15.3125 C 23.09375 17.585938 22.128906 19.550781 20.503906 21.179688 C 18.375 22.878906 16.214844 23.535156 13.484375 23.351562 C 11.011719 22.933594 9.15625 21.808594 7.574219 19.914062 C 7.125 19.214844 6.773438 18.511719 6.464844 17.742188 C 6.417969 17.621094 6.367188 17.5 6.316406 17.378906 C 5.671875 15.394531 5.996094 13.09375 6.835938 11.222656 C 8.082031 8.992188 10.0625 7.464844 12.535156 6.71875 C 15.339844 6.128906 18.0625 6.835938 20.296875 8.554688 Z M 11.265625 8.691406 C 11.265625 9.707031 11.265625 10.722656 11.265625 11.765625 C 10.292969 11.765625 9.316406 11.765625 8.3125 11.765625 C 8.3125 12.125 8.3125 12.484375 8.3125 12.851562 C 9.714844 12.851562 11.117188 12.851562 12.558594 12.851562 C 12.558594 11.480469 12.558594 10.105469 12.558594 8.691406 C 12.132812 8.691406 11.707031 8.691406 11.265625 8.691406 Z M 13.113281 8.691406 C 13.113281 10.0625 13.113281 11.4375 13.113281 12.851562 C 13.542969 12.851562 13.96875 12.851562 14.40625 12.851562 C 14.414062 12.296875 14.417969 11.738281 14.417969 11.179688 C 14.421875 11.019531 14.421875 10.863281 14.425781 10.699219 C 14.425781 10.472656 14.425781 10.472656 14.425781 10.238281 C 14.425781 10.027344 14.425781 10.027344 14.429688 9.8125 C 14.40625 9.414062 14.335938 9.070312 14.222656 8.691406 C 13.855469 8.691406 13.492188 8.691406 13.113281 8.691406 Z M 14.960938 8.691406 C 14.960938 10.0625 14.960938 11.4375 14.960938 12.851562 C 15.328125 12.851562 15.691406 12.851562 16.070312 12.851562 C 16.070312 11.480469 16.070312 10.105469 16.070312 8.691406 C 15.703125 8.691406 15.339844 8.691406 14.960938 8.691406 Z M 16.808594 8.691406 C 16.808594 10.0625 16.808594 11.4375 16.808594 12.851562 C 18.148438 12.851562 19.492188 12.851562 20.871094 12.851562 C 20.871094 12.496094 20.871094 12.136719 20.871094 11.765625 C 19.898438 11.765625 18.921875 11.765625 17.917969 11.765625 C 17.917969 10.75 17.917969 9.734375 17.917969 8.691406 C 17.550781 8.691406 17.1875 8.691406 16.808594 8.691406 Z M 8.3125 13.398438 C 8.3125 13.816406 8.3125 14.234375 8.3125 14.664062 C 9.714844 14.664062 11.117188 14.664062 12.558594 14.664062 C 12.558594 14.246094 12.558594 13.828125 12.558594 13.398438 C 11.160156 13.398438 9.757812 13.398438 8.3125 13.398438 Z M 13.113281 13.398438 C 13.113281 13.816406 13.113281 14.234375 13.113281 14.664062 C 13.542969 14.664062 13.96875 14.664062 14.40625 14.664062 C 14.40625 14.246094 14.40625 13.828125 14.40625 13.398438 C 13.980469 13.398438 13.554688 13.398438 13.113281 13.398438 Z M 14.960938 13.398438 C 14.960938 13.816406 14.960938 14.234375 14.960938 14.664062 C 15.328125 14.664062 15.691406 14.664062 16.070312 14.664062 C 16.070312 14.246094 16.070312 13.828125 16.070312 13.398438 C 15.703125 13.398438 15.339844 13.398438 14.960938 13.398438 Z M 16.808594 13.398438 C 16.808594 13.816406 16.808594 14.234375 16.808594 14.664062 C 18.148438 14.664062 19.492188 14.664062 20.871094 14.664062 C 20.871094 14.246094 20.871094 13.828125 20.871094 13.398438 C 19.53125 13.398438 18.191406 13.398438 16.808594 13.398438 Z M 8.3125 15.207031 C 8.3125 15.625 8.3125 16.042969 8.3125 16.472656 C 9.714844 16.472656 11.117188 16.472656 12.558594 16.472656 C 12.558594 16.054688 12.558594 15.636719 12.558594 15.207031 C 11.160156 15.207031 9.757812 15.207031 8.3125 15.207031 Z M 13.113281 15.207031 C 13.113281 15.625 13.113281 16.042969 13.113281 16.472656 C 13.542969 16.472656 13.96875 16.472656 14.40625 16.472656 C 14.40625 16.054688 14.40625 15.636719 14.40625 15.207031 C 13.980469 15.207031 13.554688 15.207031 13.113281 15.207031 Z M 14.960938 15.207031 C 14.960938 15.625 14.960938 16.042969 14.960938 16.472656 C 15.328125 16.472656 15.691406 16.472656 16.070312 16.472656 C 16.070312 16.054688 16.070312 15.636719 16.070312 15.207031 C 15.703125 15.207031 15.339844 15.207031 14.960938 15.207031 Z M 16.808594 15.207031 C 16.808594 15.625 16.808594 16.042969 16.808594 16.472656 C 18.148438 16.472656 19.492188 16.472656 20.871094 16.472656 C 20.871094 16.054688 20.871094 15.636719 20.871094 15.207031 C 19.53125 15.207031 18.191406 15.207031 16.808594 15.207031 Z M 8.3125 17.015625 C 8.3125 17.433594 8.3125 17.855469 8.3125 18.285156 C 9.289062 18.285156 10.261719 18.285156 11.265625 18.285156 C 11.265625 19.242188 11.265625 20.195312 11.265625 21.179688 C 11.695312 21.179688 12.121094 21.179688 12.558594 21.179688 C 12.558594 19.808594 12.558594 18.433594 12.558594 17.015625 C 11.160156 17.015625 9.757812 17.015625 8.3125 17.015625 Z M 13.113281 17.015625 C 13.113281 18.390625 13.113281 19.765625 13.113281 21.179688 C 13.480469 21.179688 13.847656 21.179688 14.222656 21.179688 C 14.257812 20.519531 14.292969 19.859375 14.328125 19.199219 C 14.335938 19.011719 14.347656 18.824219 14.359375 18.628906 C 14.367188 18.449219 14.375 18.273438 14.386719 18.085938 C 14.394531 17.921875 14.402344 17.753906 14.410156 17.585938 C 14.453125 17.199219 14.453125 17.199219 14.222656 17.015625 C 13.855469 17.015625 13.492188 17.015625 13.113281 17.015625 Z M 14.960938 17.015625 C 14.960938 18.390625 14.960938 19.765625 14.960938 21.179688 C 15.328125 21.179688 15.691406 21.179688 16.070312 21.179688 C 16.070312 19.808594 16.070312 18.433594 16.070312 17.015625 C 15.703125 17.015625 15.339844 17.015625 14.960938 17.015625 Z M 16.808594 17.015625 C 16.808594 18.390625 16.808594 19.765625 16.808594 21.179688 C 17.175781 21.179688 17.539062 21.179688 17.917969 21.179688 C 17.917969 20.226562 17.917969 19.269531 17.917969 18.285156 C 18.890625 18.285156 19.867188 18.285156 20.871094 18.285156 C 20.871094 17.867188 20.871094 17.449219 20.871094 17.015625 C 19.53125 17.015625 18.191406 17.015625 16.808594 17.015625 Z M 16.808594 17.015625 "></path><path style=" stroke:none;fill-rule:nonzero;fill:#C1CBCD;fill-opacity:1;" d="M 14.800781 38.933594 C 15.332031 39.101562 15.332031 39.101562 15.699219 39.648438 C 15.6875 40.191406 15.6875 40.191406 15.515625 40.734375 C 15.042969 41.070312 15.042969 41.070312 14.59375 41.277344 C 14.140625 41.070312 14.140625 41.070312 13.667969 40.734375 C 13.472656 40.199219 13.472656 40.199219 13.484375 39.648438 C 13.878906 39.039062 14.058594 38.917969 14.800781 38.933594 Z M 14.800781 38.933594 "></path><path style=" stroke:none;fill-rule:nonzero;fill:#C1CBCD;fill-opacity:1;" d="M 8.128906 13.398438 C 8.1875 13.398438 8.25 13.398438 8.3125 13.398438 C 8.3125 13.816406 8.3125 14.234375 8.3125 14.664062 C 9.714844 14.664062 11.117188 14.664062 12.558594 14.664062 C 12.558594 14.246094 12.558594 13.828125 12.558594 13.398438 C 12.683594 13.457031 12.804688 13.515625 12.929688 13.578125 C 13.046875 14.132812 13.046875 14.132812 13.113281 14.664062 C 13.664062 14.753906 13.664062 14.753906 14.222656 14.84375 C 14.222656 14.90625 14.222656 14.964844 14.222656 15.027344 C 13.855469 15.027344 13.492188 15.027344 13.113281 15.027344 C 13.113281 15.503906 13.113281 15.980469 13.113281 16.472656 C 13.542969 16.472656 13.96875 16.472656 14.40625 16.472656 C 14.40625 16.535156 14.40625 16.59375 14.40625 16.65625 C 12.976562 16.679688 12.976562 16.679688 12.558594 16.472656 C 12.558594 16.054688 12.558594 15.636719 12.558594 15.207031 C 11.160156 15.207031 9.757812 15.207031 8.3125 15.207031 C 8.015625 14.625 8.117188 14.042969 8.128906 13.398438 Z M 8.128906 13.398438 "></path><path style=" stroke:none;fill-rule:nonzero;fill:#C1CBCD;fill-opacity:1;" d="M 12.746094 15.386719 C 12.804688 15.386719 12.867188 15.386719 12.929688 15.386719 C 12.929688 15.804688 12.929688 16.222656 12.929688 16.65625 C 13.355469 16.65625 13.785156 16.65625 14.222656 16.65625 C 14.222656 16.714844 14.222656 16.773438 14.222656 16.835938 C 13.855469 16.894531 13.492188 16.957031 13.113281 17.015625 C 13.054688 18.390625 12.992188 19.765625 12.929688 21.179688 C 12.867188 21.179688 12.808594 21.179688 12.746094 21.179688 C 12.652344 19.121094 12.652344 19.121094 12.558594 17.015625 C 10.457031 16.925781 10.457031 16.925781 8.3125 16.835938 C 8.3125 16.777344 8.3125 16.714844 8.3125 16.65625 C 9.714844 16.59375 11.117188 16.535156 12.558594 16.472656 C 12.621094 16.117188 12.683594 15.757812 12.746094 15.386719 Z M 12.746094 15.386719 "></path>
</svg>
