<svg viewBox="0 0 27 28">
  <title>stethoscope</title>
  <style>
    :host {
      --stroke-width: 2;
      --fill: none;
      --transition: none;
    }

    :host {
      font-size: 24px;
      stroke: inherit;
    }

    :host path {
      stroke: currentColor;
      stroke-width: var(--stroke-width);
      fill: var(--fill);
      transition: var(--transition);
      stroke-linecap: round;
      stroke-linejoin: round;
    }

    :host(.ion-color) path {
      --stroke: var(--ion-color-base) !important;
    }

    :host([tp-size='sm']) {
      font-size: 16px;
    }

    :host([tp-size='md']) {
      font-size: 32px;
    }

    :host([tp-size='lg']) {
      font-size: 48px;
    }
  </style>
  <path d="M10.125 16.5144V19.625C10.125 21.1169 10.7176 22.5476 11.7725 23.6025C12.8274 24.6574 14.2582 25.25 15.75 25.25H16.7423C17.7517 25.2498 18.7335 24.9201 19.5384 24.3109C20.3433 23.7017 20.9273 22.8465 21.2018 21.875" />
  <path d="M6.10762 3.875H6.00412C5.652 3.875 5.47538 3.875 5.328 3.8885C4.53872 3.95832 3.79917 4.30361 3.23889 4.86389C2.67861 5.42417 2.33332 6.16372 2.2635 6.953C2.25 7.1015 2.25 7.277 2.25 7.628V8.6405C2.25 10.7291 3.07969 12.7321 4.55653 14.209C6.03338 15.6858 8.03642 16.5155 10.125 16.5155C11.117 16.5155 12.0993 16.3201 13.0158 15.9404C13.9322 15.5608 14.765 15.0043 15.4664 14.3028C16.1678 13.6013 16.7241 12.7685 17.1036 11.852C17.4831 10.9354 17.6784 9.95313 17.6782 8.96113V7.62913C17.6782 7.277 17.6783 7.10038 17.6659 6.953C17.5961 6.16372 17.2508 5.42417 16.6905 4.86389C16.1302 4.30361 15.3907 3.95832 14.6014 3.8885C14.4529 3.875 14.2762 3.875 13.9241 3.875H13.8218"  />
  <path d="M21.375 21.875C23.239 21.875 24.75 20.364 24.75 18.5C24.75 16.636 23.239 15.125 21.375 15.125C19.511 15.125 18 16.636 18 18.5C18 20.364 19.511 21.875 21.375 21.875Z" />
  <path d="M13.5 2.75V5M6.75 2.75V5"  />
</svg>
